<?xml version="1.0" encoding="utf-8"?>
<!-- Generator: Adobe Illustrator 27.5.0, SVG Export Plug-In . SVG Version: 6.00 Build 0)  -->
<svg version="1.1" xmlns="http://www.w3.org/2000/svg" xmlns:xlink="http://www.w3.org/1999/xlink" x="0px" y="0px"
	 viewBox="0 0 500 500" style="enable-background:new 0 0 500 500;" xml:space="preserve">
<g id="Background_complete">
	<g>
		<g>
			<g>
				<g>
					<path style="fill:#F0F0F0;" d="M444.708,349.145H263.962c-3.232,0-5.862-2.63-5.862-5.862V80.009
						c0-3.232,2.63-5.862,5.862-5.862h180.746c3.232,0,5.862,2.629,5.862,5.862v263.273
						C450.57,346.515,447.94,349.145,444.708,349.145z M263.962,74.397c-3.095,0-5.612,2.518-5.612,5.612v263.273
						c0,3.095,2.518,5.612,5.612,5.612h180.746c3.095,0,5.612-2.518,5.612-5.612V80.009c0-3.094-2.518-5.612-5.612-5.612H263.962z"
						/>
				</g>
			</g>
			<g>
				<g>
					<path style="fill:#F0F0F0;" d="M236.28,349.145H55.534c-3.232,0-5.862-2.63-5.862-5.862V80.009
						c0-3.232,2.629-5.862,5.862-5.862H236.28c3.232,0,5.862,2.629,5.862,5.862v263.273
						C242.143,346.515,239.513,349.145,236.28,349.145z M55.534,74.397c-3.094,0-5.612,2.518-5.612,5.612v263.273
						c0,3.095,2.518,5.612,5.612,5.612H236.28c3.095,0,5.612-2.518,5.612-5.612V80.009c0-3.094-2.518-5.612-5.612-5.612H55.534z"/>
				</g>
			</g>
		</g>
		<g>
			<g>
				<rect x="0.788" y="410.214" style="fill:#E0E0E0;" width="500" height="0.25"/>
			</g>
		</g>
	</g>
	<g>
		<rect x="133.553" y="84.733" style="fill:#E6E6E6;" width="97.896" height="97.896"/>
		
			<rect x="138.508" y="89.689" transform="matrix(-1.836970e-16 1 -1 -1.836970e-16 316.1816 -48.8196)" style="fill:#FAFAFA;" width="87.985" height="87.985"/>
		<path style="fill:#F0F0F0;" d="M176.603,157.692c0,0,16.156-33.124,49.89-33.787v53.769h-43.992L176.603,157.692z"/>
		<path style="fill:#F5F5F5;" d="M138.508,148.392c0,0,14.528-7.616,29.294-2.025c18.543,7.02,29.294,31.307,29.294,31.307h-58.588
			V148.392z"/>
		
			<ellipse transform="matrix(0.9872 -0.1594 0.1594 0.9872 -16.5864 28.3947)" style="fill:#FFFFFF;" cx="168.691" cy="117.581" rx="15.523" ry="15.523"/>
	</g>
	<g>
		<rect x="268.627" y="84.221" style="fill:#E6E6E6;" width="85.887" height="166.273"/>
		
			<rect x="233.389" y="129.369" transform="matrix(-1.836970e-16 1 -1 -1.836970e-16 478.9269 -144.2129)" style="fill:#FAFAFA;" width="156.362" height="75.976"/>
		
			<ellipse transform="matrix(0.0982 -0.9952 0.9952 0.0982 133.4678 422.5458)" style="fill:#FFFFFF;" cx="299.889" cy="137.627" rx="15.523" ry="15.523"/>
		<path style="fill:#F0F0F0;" d="M287.785,245.538c0,0,19.229-92.457,61.773-100.758v100.758H311.57H287.785z"/>
		<path style="fill:#F5F5F5;" d="M273.582,190.667c0,0,9.788-9.438,25.296-3.796c29.14,10.602,45.405,58.667,45.405,58.667h-70.701
			V190.667z"/>
	</g>
	<g>
		<g>
			<g>
				<g>
					<path style="fill:#F5F5F5;" d="M68.451,359.133c0,0-7.23,2.059-15.205-8.276c-5.764-7.47-15.966-23.409-30.044-23.682
						c0,0,16.706-7.24,31.45,0.134C69.395,334.683,77.261,353.77,68.451,359.133"/>
				</g>
				<g>
					<path style="fill:#E0E0E0;" d="M72.76,389.07c-0.008,0-0.016,0-0.024-0.001c-0.263-0.013-0.466-0.237-0.453-0.5
						c0.005-0.099,0.468-10.061-1.512-21.401c-1.818-10.409-6.126-24.145-16.32-30.471c-0.224-0.139-0.293-0.433-0.154-0.657
						c0.139-0.224,0.433-0.293,0.657-0.154c4.648,2.884,8.501,7.465,11.452,13.616c2.348,4.893,4.134,10.788,5.308,17.52
						c1.996,11.441,1.527,21.494,1.522,21.594C73.224,388.871,73.013,389.07,72.76,389.07z"/>
				</g>
			</g>
			<g>
				<g>
					<path style="fill:#F5F5F5;" d="M73.926,336.375c0,0,7.319-1.714,9.268-14.622c1.408-9.329,2.579-28.218,14.75-35.297
						c0,0-18.12,1.79-27.422,15.4S63.62,335.968,73.926,336.375"/>
				</g>
				<g>
					<path style="fill:#E0E0E0;" d="M83.998,389.913c-0.195,0-0.378-0.12-0.449-0.314c-0.048-0.132-4.874-13.436-8.395-29.849
						c-2.07-9.647-3.292-18.469-3.632-26.219c-0.427-9.72,0.54-17.784,2.874-23.968c0.093-0.247,0.369-0.371,0.615-0.278
						c0.247,0.093,0.371,0.368,0.278,0.615c-5.193,13.758-2.432,34.594,0.798,49.65c3.507,16.349,8.31,29.591,8.358,29.723
						c0.09,0.248-0.037,0.522-0.285,0.612C84.108,389.903,84.053,389.913,83.998,389.913z"/>
				</g>
			</g>
			<g>
				<g>
					<path style="fill:#F5F5F5;" d="M86.728,342.695c0,0,7.448,1.017,13.883-10.341c4.651-8.209,12.499-25.43,26.397-27.69
						c0,0-17.562-4.807-31.115,4.576C82.339,318.623,77.248,338.63,86.728,342.695"/>
				</g>
				<g>
					<path style="fill:#E0E0E0;" d="M87.868,389.912c-0.223,0-0.423-0.158-0.468-0.385c-0.025-0.125-2.464-12.68-2.535-27.695
						c-0.042-8.829,0.731-16.772,2.296-23.611c1.965-8.583,5.192-15.446,9.594-20.398c0.175-0.197,0.477-0.215,0.674-0.04
						c0.197,0.175,0.215,0.477,0.039,0.674c-9.745,10.965-11.714,29.637-11.648,43.37c0.071,14.925,2.493,27.391,2.517,27.515
						c0.051,0.259-0.117,0.51-0.376,0.561C87.93,389.91,87.899,389.912,87.868,389.912z"/>
				</g>
			</g>
			<g>
				<g>
					<path style="fill:#F5F5F5;" d="M99.524,360.067c0,0,7.098,2.477,15.661-7.377c6.189-7.121,17.303-22.439,31.373-21.892
						c0,0-16.257-8.201-31.404-1.698C100.006,335.603,91.041,354.2,99.524,360.067"/>
				</g>
				<g>
					<path style="fill:#E0E0E0;" d="M92.614,389.912c-0.257,0-0.47-0.205-0.477-0.464c-0.003-0.086-0.215-8.722,2.393-19.351
						c1.534-6.247,3.728-11.957,6.522-16.969c3.499-6.278,7.955-11.474,13.241-15.445c0.211-0.158,0.51-0.116,0.668,0.095
						c0.158,0.211,0.116,0.51-0.095,0.668c-11.738,8.816-17.034,22.202-19.409,31.878c-2.578,10.504-2.369,19.011-2.366,19.096
						c0.007,0.263-0.2,0.483-0.464,0.491C92.623,389.912,92.619,389.912,92.614,389.912z"/>
				</g>
			</g>
		</g>
		<polygon style="fill:#E0E0E0;" points="109.622,388.76 102.854,410.107 66.109,410.107 59.329,388.76 		"/>
	</g>
	<g>
		<g>
			<g>
				<g>
					<g>
						<g>
							<g>
								<g>
									<g>
										<path style="fill:#F0F0F0;" d="M118.299,240.072h1.584v-1.58H77.001c-1.421,0-2.711,0.574-3.641,1.508
											c-0.93,0.93-1.508,2.217-1.508,3.641c0,2.845,2.304,5.149,5.149,5.149h42.883v-1.58h-1.584V240.072z"/>
									</g>
								</g>
							</g>
						</g>
					</g>
					<g>
						<g>
							<g>
								<g>
									<g>
										<path style="fill:#FFFFFF;" d="M118.299,240.072v7.137H78.95c-1.921,0-3.476-1.599-3.476-3.567
											c0-0.987,0.39-1.878,1.018-2.526c0.631-0.645,1.498-1.044,2.458-1.044H118.299z"/>
									</g>
								</g>
							</g>
						</g>
					</g>
					<g>
						<g>
							<g>
								<g>
									<g>
										<g>
											<path style="fill:#F0F0F0;" d="M118.299,241.878v1.092H79.967c-0.299,0-0.544-0.245-0.544-0.544v-0.003
												c0-0.299,0.245-0.544,0.544-0.544H118.299z"/>
										</g>
									</g>
								</g>
							</g>
						</g>
					</g>
					<g>
						<g>
							<g>
								<g>
									<g>
										<g>
											<path style="fill:#F0F0F0;" d="M118.299,244.565v1.091H79.967c-0.299,0-0.544-0.245-0.544-0.544v-0.003
												c0-0.299,0.245-0.544,0.544-0.544H118.299z"/>
										</g>
									</g>
								</g>
							</g>
						</g>
					</g>
				</g>
			</g>
			<g>
				<g>
					<g>
						<g>
							<g>
								<g>
									<g>
										<path style="fill:#E0E0E0;" d="M111.833,229.768h1.584v-1.58H70.534c-1.421,0-2.711,0.574-3.641,1.508
											c-0.93,0.93-1.508,2.217-1.508,3.641c0,2.845,2.304,5.149,5.149,5.149h42.883v-1.58h-1.584V229.768z"/>
									</g>
								</g>
							</g>
						</g>
					</g>
					<g>
						<g>
							<g>
								<g>
									<g>
										<path style="fill:#FFFFFF;" d="M111.833,229.768v7.137h-39.35c-1.921,0-3.476-1.599-3.476-3.567
											c0-0.988,0.39-1.878,1.018-2.526c0.631-0.645,1.498-1.045,2.459-1.045H111.833z"/>
									</g>
								</g>
							</g>
						</g>
					</g>
					<g>
						<g>
							<g>
								<g>
									<g>
										<g>
											<path style="fill:#F0F0F0;" d="M111.833,231.575v1.091H73.501c-0.299,0-0.544-0.245-0.544-0.544v-0.003
												c0-0.299,0.245-0.544,0.544-0.544H111.833z"/>
										</g>
									</g>
								</g>
							</g>
						</g>
					</g>
					<g>
						<g>
							<g>
								<g>
									<g>
										<g>
											<path style="fill:#F0F0F0;" d="M111.833,234.262v1.091H73.501c-0.299,0-0.544-0.245-0.544-0.544v-0.003
												c0-0.299,0.245-0.544,0.544-0.544H111.833z"/>
										</g>
									</g>
								</g>
							</g>
						</g>
					</g>
				</g>
			</g>
		</g>
		<rect x="60.192" y="248.815" style="fill:#E6E6E6;" width="105" height="6.986"/>
		<polygon style="fill:#E0E0E0;" points="79.851,262.888 79.851,255.801 71.129,255.801 74.328,262.888 		"/>
		<polygon style="fill:#E0E0E0;" points="143.462,262.888 143.462,255.801 152.185,255.801 148.986,262.888 		"/>
	</g>
	<g>
		<rect x="57.333" y="89.688" style="fill:#F5F5F5;" width="27.547" height="10.312"/>
		<rect x="88.679" y="89.688" style="fill:#F5F5F5;" width="27.547" height="10.312"/>
		<rect x="72.918" y="103.188" style="fill:#F5F5F5;" width="27.547" height="10.312"/>
	</g>
	<g>
		<rect x="385.703" y="221.347" style="fill:#F5F5F5;" width="27.547" height="10.312"/>
		<rect x="417.048" y="221.347" style="fill:#F5F5F5;" width="27.547" height="10.312"/>
		<rect x="401.287" y="234.847" style="fill:#F5F5F5;" width="27.547" height="10.312"/>
	</g>
	<g>
		<rect x="410.48" y="84.733" style="fill:#F5F5F5;" width="27.547" height="10.312"/>
		<rect x="394.72" y="98.233" style="fill:#F5F5F5;" width="27.547" height="10.312"/>
	</g>
</g>
<g id="Background_simple" style="display:none;">
	<g style="display:inline;">
		<path style="fill:#407BFF;" d="M71.671,221.067c-5.257-25.24-2.705-51.456,8.212-73.983c10.165-20.974,28.95-42.289,63.596-46.395
			c79.371-9.407,85.096,123.405,175.441,66.589c90.345-56.816,169.226,58.349,108.758,125.144
			c-60.468,66.796-194.772,79.291-262.695,47.129C101.036,309.271,79.125,256.858,71.671,221.067z"/>
		<path style="opacity:0.9;fill:#FFFFFF;" d="M71.671,221.067c-5.257-25.24-2.705-51.456,8.212-73.983
			c10.165-20.974,28.95-42.289,63.596-46.395c79.371-9.407,85.096,123.405,175.441,66.589
			c90.345-56.816,169.226,58.349,108.758,125.144c-60.468,66.796-194.772,79.291-262.695,47.129
			C101.036,309.271,79.125,256.858,71.671,221.067z"/>
	</g>
</g>
<g id="Table">
	<g>
		<g>
			<path style="fill:#263238;" d="M464.602,444.333H51.935c-1.473,0-2.667-1.194-2.667-2.667l0,0c0-1.473,1.194-2.667,2.667-2.667
				h412.667c1.473,0,2.667,1.194,2.667,2.667l0,0C467.268,443.139,466.075,444.333,464.602,444.333z"/>
			<path style="opacity:0.9;fill:#FFFFFF;" d="M464.602,444.333H51.935c-1.473,0-2.667-1.194-2.667-2.667l0,0
				c0-1.473,1.194-2.667,2.667-2.667h412.667c1.473,0,2.667,1.194,2.667,2.667l0,0C467.268,443.139,466.075,444.333,464.602,444.333
				z"/>
		</g>
		<g>
			<path style="fill:#263238;" d="M461.081,444.365H55.456l0,0c0,2.945,2.625,5.333,5.863,5.333h393.899
				C458.456,449.698,461.081,447.31,461.081,444.365L461.081,444.365z"/>
			<path style="opacity:0.8;fill:#FFFFFF;" d="M461.081,444.365H55.456l0,0c0,2.945,2.625,5.333,5.863,5.333h393.899
				C458.456,449.698,461.081,447.31,461.081,444.365L461.081,444.365z"/>
		</g>
	</g>
</g>
<g id="Check_mark_2">
	<g>
		<g>
			<g>
				<path style="fill:#407BFF;" d="M399.582,159.929v0.42c-0.232,0-0.379-0.188-0.379-0.42c0-0.232,0.228-0.419,0.46-0.419
					c1.881,0,3.741-0.266,5.53-0.792c0.225-0.066,0.457,0.062,0.521,0.285c0.065,0.222-0.062,0.455-0.285,0.521
					c-1.866,0.548-3.805,0.826-5.775,0.826L399.582,159.929z M393.817,159.5c-1.868-0.557-3.648-1.38-5.29-2.447
					c-0.194-0.126-0.249-0.386-0.123-0.581c0.125-0.194,0.385-0.25,0.581-0.123c1.574,1.023,3.28,1.813,5.071,2.347
					c0.223,0.066,0.349,0.3,0.283,0.522c-0.054,0.183-0.221,0.3-0.402,0.3C393.897,159.517,393.857,159.512,393.817,159.5z
					 M410.149,156.971c-0.125-0.195-0.069-0.455,0.126-0.58c1.574-1.014,2.995-2.246,4.224-3.662
					c0.153-0.174,0.417-0.192,0.593-0.042c0.175,0.152,0.194,0.417,0.042,0.593c-1.281,1.475-2.763,2.759-4.403,3.817
					c-0.071,0.045-0.149,0.067-0.227,0.067C410.365,157.164,410.23,157.096,410.149,156.971z M384.139,153.218
					c-1.278-1.483-2.334-3.135-3.14-4.909c-0.096-0.211-0.003-0.46,0.208-0.556c0.21-0.095,0.46-0.003,0.556,0.208
					c0.773,1.701,1.787,3.286,3.012,4.708c0.151,0.176,0.132,0.441-0.044,0.592c-0.079,0.068-0.177,0.102-0.274,0.102
					C384.34,153.364,384.222,153.315,384.139,153.218z M417.737,148.59c-0.21-0.097-0.303-0.346-0.206-0.557
					c0.782-1.703,1.314-3.505,1.581-5.358c0.033-0.23,0.248-0.398,0.475-0.356c0.23,0.033,0.389,0.246,0.356,0.475
					c-0.278,1.933-0.832,3.814-1.648,5.59c-0.071,0.154-0.223,0.244-0.382,0.244C417.853,148.629,417.794,148.617,417.737,148.59z
					 M379.372,142.712c-0.131-0.94-0.197-1.899-0.197-2.852c0-0.994,0.073-1.995,0.215-2.975c0.034-0.229,0.241-0.385,0.476-0.355
					c0.23,0.033,0.388,0.246,0.355,0.476c-0.137,0.94-0.207,1.9-0.207,2.853c0,0.913,0.064,1.834,0.19,2.736
					c0.032,0.23-0.129,0.442-0.358,0.474c-0.02,0.003-0.039,0.004-0.059,0.004C379.581,143.074,379.401,142.922,379.372,142.712z
					 M419.117,137.086c-0.263-1.855-0.791-3.659-1.57-5.363c-0.097-0.211-0.004-0.46,0.207-0.557
					c0.209-0.095,0.459-0.004,0.556,0.208c0.812,1.777,1.363,3.659,1.637,5.594c0.033,0.229-0.127,0.442-0.356,0.474
					c-0.02,0.003-0.04,0.004-0.06,0.004C419.327,137.447,419.147,137.295,419.117,137.086z M381.255,131.857
					c-0.21-0.097-0.302-0.346-0.205-0.557c0.817-1.771,1.884-3.415,3.17-4.89c0.152-0.175,0.418-0.193,0.592-0.04
					c0.174,0.153,0.193,0.418,0.04,0.593c-1.234,1.414-2.256,2.992-3.041,4.69c-0.071,0.154-0.223,0.244-0.381,0.244
					C381.372,131.896,381.312,131.883,381.255,131.857z M414.526,127.021c-1.227-1.418-2.646-2.652-4.217-3.669
					c-0.194-0.126-0.25-0.386-0.125-0.581c0.126-0.195,0.387-0.25,0.581-0.125c1.639,1.061,3.118,2.348,4.396,3.826
					c0.151,0.175,0.132,0.44-0.043,0.592c-0.079,0.068-0.177,0.102-0.274,0.102C414.726,127.167,414.609,127.118,414.526,127.021z
					 M388.504,123.183c-0.125-0.195-0.069-0.455,0.126-0.58c1.649-1.058,3.433-1.87,5.304-2.415c0.223-0.065,0.456,0.063,0.52,0.285
					c0.065,0.222-0.063,0.456-0.285,0.52c-1.794,0.523-3.505,1.302-5.086,2.316c-0.071,0.045-0.149,0.067-0.226,0.067
					C388.72,123.376,388.584,123.308,388.504,123.183z M405.233,121.015c-1.789-0.529-3.649-0.799-5.529-0.803
					c-0.232,0-0.42-0.189-0.419-0.421c0.001-0.231,0.188-0.419,0.42-0.419h0.001c1.961,0.004,3.901,0.286,5.766,0.838
					c0.222,0.066,0.349,0.299,0.283,0.521c-0.053,0.182-0.221,0.301-0.402,0.301C405.313,121.033,405.273,121.027,405.233,121.015z"
					/>
			</g>
			<circle style="fill:#407BFF;" cx="399.663" cy="139.861" r="16.71"/>
			<g>
				<path style="fill:#FFFFFF;" d="M395.989,147.114c-0.013,0-0.026,0-0.039-0.001c-0.303-0.011-0.589-0.144-0.792-0.369
					l-5.038-5.586c-0.414-0.459-0.378-1.167,0.082-1.581c0.46-0.415,1.167-0.377,1.581,0.082l4.262,4.727l10.781-10.392
					c0.445-0.428,1.154-0.415,1.583,0.03c0.428,0.445,0.416,1.154-0.03,1.583l-11.614,11.195
					C396.557,147.002,396.278,147.114,395.989,147.114z"/>
			</g>
		</g>
		<g>
			<g>
				<path style="fill:#407BFF;" d="M400.173,186.061v-2.138c0-0.296,0.239-0.535,0.535-0.535c0.296,0,0.535,0.239,0.535,0.535v2.138
					c0,0.296-0.239,0.535-0.535,0.535C400.413,186.596,400.173,186.357,400.173,186.061z M400.173,179.648v-2.138
					c0-0.296,0.239-0.535,0.535-0.535c0.296,0,0.535,0.239,0.535,0.535v2.138c0,0.296-0.239,0.535-0.535,0.535
					C400.413,180.183,400.173,179.944,400.173,179.648z M400.173,173.235v-2.137c0-0.296,0.239-0.535,0.535-0.535
					c0.296,0,0.535,0.239,0.535,0.535v2.137c0,0.296-0.239,0.535-0.535,0.535C400.413,173.77,400.173,173.53,400.173,173.235z
					 M400.173,166.822v-2.138c0-0.296,0.239-0.535,0.535-0.535c0.296,0,0.535,0.239,0.535,0.535v2.138
					c0,0.296-0.239,0.535-0.535,0.535C400.413,167.357,400.173,167.118,400.173,166.822z"/>
			</g>
			<g>
				<path style="fill:#407BFF;" d="M399.638,191.941h1.07c0.296,0,0.535-0.239,0.535-0.535v-1.07c0-0.296-0.239-0.535-0.535-0.535
					c-0.296,0-0.535,0.239-0.535,0.535v0.535h-0.535c-0.296,0-0.535,0.239-0.535,0.535
					C399.103,191.702,399.342,191.941,399.638,191.941z"/>
			</g>
			<g>
				<path style="fill:#407BFF;" d="M374.795,191.406c0-0.296,0.239-0.535,0.535-0.535h2.026c0.296,0,0.535,0.239,0.535,0.535
					c0,0.296-0.239,0.535-0.535,0.535h-2.026C375.034,191.941,374.795,191.702,374.795,191.406z M380.872,191.406
					c0-0.296,0.239-0.535,0.535-0.535h2.026c0.296,0,0.535,0.239,0.535,0.535c0,0.296-0.239,0.535-0.535,0.535h-2.026
					C381.111,191.941,380.872,191.702,380.872,191.406z M386.949,191.406c0-0.296,0.239-0.535,0.535-0.535h2.026
					c0.296,0,0.535,0.239,0.535,0.535c0,0.296-0.239,0.535-0.535,0.535h-2.026C387.188,191.941,386.949,191.702,386.949,191.406z
					 M393.026,191.406c0-0.296,0.239-0.535,0.535-0.535h2.026c0.296,0,0.535,0.239,0.535,0.535c0,0.296-0.239,0.535-0.535,0.535
					h-2.026C393.265,191.941,393.026,191.702,393.026,191.406z"/>
			</g>
		</g>
	</g>
</g>
<g id="Check_mark_1">
	<g>
		<g>
			<g>
				<path style="fill:#407BFF;" d="M97.153,160.349c-1.969,0-3.909-0.278-5.775-0.826c-0.222-0.066-0.35-0.299-0.285-0.521
					c0.064-0.223,0.296-0.35,0.521-0.285c1.789,0.526,3.65,0.792,5.531,0.792c0.232,0,0.46,0.188,0.46,0.419
					c0,0.232-0.147,0.42-0.379,0.42v-0.42L97.153,160.349z M102.872,159.517c-0.181,0-0.348-0.117-0.402-0.3
					c-0.066-0.222,0.06-0.456,0.283-0.522c1.791-0.534,3.497-1.323,5.071-2.347c0.196-0.127,0.456-0.071,0.581,0.123
					c0.126,0.195,0.071,0.455-0.123,0.581c-1.642,1.067-3.422,1.891-5.289,2.447C102.952,159.512,102.911,159.517,102.872,159.517z
					 M86.305,157.164c-0.078,0-0.156-0.022-0.227-0.067c-1.641-1.058-3.122-2.342-4.403-3.817c-0.152-0.176-0.134-0.441,0.041-0.593
					c0.175-0.151,0.439-0.133,0.592,0.042c1.229,1.416,2.65,2.648,4.224,3.662c0.195,0.126,0.251,0.386,0.126,0.58
					C86.578,157.096,86.443,157.164,86.305,157.164z M112.351,153.364c-0.097,0-0.195-0.033-0.274-0.102
					c-0.176-0.151-0.196-0.417-0.044-0.592c1.226-1.423,2.239-3.007,3.012-4.708c0.096-0.212,0.346-0.303,0.556-0.208
					c0.211,0.096,0.305,0.345,0.208,0.556c-0.806,1.774-1.863,3.426-3.14,4.909C112.586,153.315,112.469,153.364,112.351,153.364z
					 M78.896,148.629c-0.159,0-0.311-0.091-0.382-0.244c-0.816-1.776-1.37-3.657-1.648-5.59c-0.033-0.229,0.126-0.442,0.356-0.475
					c0.227-0.042,0.442,0.126,0.475,0.356c0.267,1.853,0.799,3.656,1.581,5.358c0.097,0.211,0.005,0.46-0.206,0.557
					C79.015,148.617,78.955,148.629,78.896,148.629z M117.021,143.074c-0.019,0-0.039-0.001-0.059-0.004
					c-0.23-0.032-0.39-0.244-0.358-0.474c0.126-0.902,0.19-1.822,0.19-2.736c0-0.954-0.069-1.914-0.207-2.853
					c-0.033-0.23,0.125-0.443,0.355-0.476c0.235-0.03,0.442,0.126,0.476,0.355c0.143,0.98,0.215,1.98,0.215,2.975
					c0,0.952-0.067,1.911-0.197,2.852C117.407,142.922,117.227,143.074,117.021,143.074z M77.276,137.447
					c-0.02,0-0.039-0.001-0.06-0.004c-0.229-0.032-0.389-0.245-0.356-0.474c0.274-1.935,0.825-3.816,1.637-5.594
					c0.097-0.212,0.348-0.303,0.556-0.208c0.211,0.097,0.304,0.346,0.207,0.557c-0.778,1.704-1.306,3.508-1.57,5.363
					C77.662,137.295,77.482,137.447,77.276,137.447z M115.377,131.896c-0.159,0-0.31-0.09-0.381-0.244
					c-0.784-1.698-1.807-3.276-3.041-4.69c-0.152-0.175-0.134-0.44,0.041-0.593c0.175-0.152,0.44-0.134,0.592,0.04
					c1.286,1.475,2.353,3.119,3.17,4.89c0.097,0.21,0.006,0.46-0.205,0.557C115.496,131.883,115.436,131.896,115.377,131.896z
					 M81.965,127.167c-0.097,0-0.195-0.034-0.274-0.102c-0.176-0.152-0.195-0.417-0.043-0.592c1.279-1.478,2.758-2.765,4.396-3.826
					c0.194-0.126,0.454-0.07,0.58,0.125c0.126,0.195,0.07,0.454-0.125,0.581c-1.572,1.017-2.991,2.251-4.217,3.669
					C82.2,127.118,82.083,127.167,81.965,127.167z M107.951,123.376c-0.078,0-0.156-0.021-0.226-0.067
					c-1.58-1.013-3.292-1.793-5.086-2.316c-0.222-0.065-0.35-0.298-0.285-0.52c0.064-0.223,0.297-0.35,0.52-0.285
					c1.871,0.546,3.656,1.358,5.304,2.415c0.195,0.125,0.252,0.385,0.126,0.58C108.224,123.308,108.089,123.376,107.951,123.376z
					 M91.456,121.033c-0.181,0-0.349-0.118-0.402-0.301c-0.066-0.223,0.061-0.456,0.283-0.521c1.866-0.552,3.805-0.834,5.766-0.838
					h0.001c0.232,0,0.419,0.188,0.42,0.419c0.001,0.232-0.187,0.42-0.419,0.421c-1.88,0.004-3.741,0.274-5.529,0.803
					C91.536,121.027,91.496,121.033,91.456,121.033z"/>
			</g>
			<circle style="fill:#407BFF;" cx="97.145" cy="139.861" r="16.71"/>
			<g>
				<path style="fill:#FFFFFF;" d="M94.243,147.114c-0.013,0-0.026,0-0.039-0.001c-0.303-0.011-0.589-0.144-0.792-0.369
					l-5.038-5.586c-0.414-0.459-0.378-1.167,0.082-1.581c0.46-0.415,1.166-0.377,1.581,0.082l4.262,4.727l10.781-10.392
					c0.445-0.428,1.154-0.415,1.583,0.03c0.428,0.445,0.416,1.154-0.029,1.583l-11.614,11.195
					C94.811,147.002,94.532,147.114,94.243,147.114z"/>
			</g>
		</g>
		<g>
			<g>
				<path style="fill:#407BFF;" d="M96.1,186.596c-0.296,0-0.535-0.239-0.535-0.535v-2.138c0-0.296,0.239-0.535,0.535-0.535
					s0.535,0.239,0.535,0.535v2.138C96.635,186.357,96.396,186.596,96.1,186.596z M96.1,180.183c-0.296,0-0.535-0.239-0.535-0.535
					v-2.138c0-0.296,0.239-0.535,0.535-0.535s0.535,0.239,0.535,0.535v2.138C96.635,179.944,96.396,180.183,96.1,180.183z
					 M96.1,173.77c-0.296,0-0.535-0.239-0.535-0.535v-2.137c0-0.296,0.239-0.535,0.535-0.535s0.535,0.239,0.535,0.535v2.137
					C96.635,173.53,96.396,173.77,96.1,173.77z M96.1,167.357c-0.296,0-0.535-0.239-0.535-0.535v-2.138
					c0-0.296,0.239-0.535,0.535-0.535s0.535,0.239,0.535,0.535v2.138C96.635,167.118,96.396,167.357,96.1,167.357z"/>
			</g>
			<g>
				<path style="fill:#407BFF;" d="M97.17,191.941H96.1c-0.296,0-0.535-0.239-0.535-0.535v-1.07c0-0.296,0.239-0.535,0.535-0.535
					s0.535,0.239,0.535,0.535v0.535h0.535c0.296,0,0.535,0.239,0.535,0.535C97.705,191.702,97.466,191.941,97.17,191.941z"/>
			</g>
			<g>
				<path style="fill:#407BFF;" d="M121.479,191.941h-2.026c-0.296,0-0.535-0.239-0.535-0.535c0-0.296,0.239-0.535,0.535-0.535
					h2.026c0.296,0,0.535,0.239,0.535,0.535C122.014,191.702,121.774,191.941,121.479,191.941z M115.401,191.941h-2.026
					c-0.296,0-0.535-0.239-0.535-0.535c0-0.296,0.239-0.535,0.535-0.535h2.026c0.296,0,0.535,0.239,0.535,0.535
					C115.937,191.702,115.697,191.941,115.401,191.941z M109.324,191.941h-2.025c-0.296,0-0.535-0.239-0.535-0.535
					c0-0.296,0.239-0.535,0.535-0.535h2.025c0.296,0,0.535,0.239,0.535,0.535C109.859,191.702,109.62,191.941,109.324,191.941z
					 M103.247,191.941h-2.026c-0.296,0-0.535-0.239-0.535-0.535c0-0.296,0.239-0.535,0.535-0.535h2.026
					c0.296,0,0.535,0.239,0.535,0.535C103.782,191.702,103.543,191.941,103.247,191.941z"/>
			</g>
		</g>
	</g>
</g>
<g id="Character_2">
	<g>
		<g>
			<polygon style="fill:#263238;" points="295.359,384.453 289.277,438.968 348.254,438.968 349.972,431.914 353.602,438.968 
				407.798,439.424 405.783,387.494 			"/>
			<path style="fill:#407BFF;" d="M386.287,222.139c-22.294-2.748-53.919-2.496-74.913,1.165
				c-10.69,1.864-18.699,10.791-19.579,21.606c-2.607,32.023-4.386,85.367,1.73,141.716c49.4,16.574,115.3,3.635,115.3,3.635
				c-0.474-16.162-4.548-50.032-4.276-70.325c0.358-26.737,2.745-43.421,2.489-70.71
				C406.91,235.844,399.569,223.776,386.287,222.139"/>
			<path style="opacity:0.2;fill:#FFFFFF;" d="M386.287,222.139c-22.294-2.748-53.919-2.496-74.913,1.165
				c-10.69,1.864-18.699,10.791-19.579,21.606c-2.607,32.023-4.386,85.367,1.73,141.716c49.4,16.574,115.3,3.635,115.3,3.635
				c-0.474-16.162-4.548-50.032-4.276-70.325c0.358-26.737,2.745-43.421,2.489-70.71
				C406.91,235.844,399.569,223.776,386.287,222.139"/>
			<g>
				<g>
					<path style="fill:#CE7A63;" d="M328.507,265.08c-1.759-4.398,3.042-8.648,7.288-6.548c1.402,0.693,2.418,1.37,3.656,2.386
						c-2.519-1.916-6.488-4.968-5.416-6.32c1.943-2.443,15.104,5.638,20.765,9.866c-3.805-4.752-3.181-12.868-0.944-9.77
						c2.58,3.627,6.247,7.871,11.573,14.483c7.425,9.175,0.777,18.09,0.777,18.09c-6.447,5.641-17.101,2.034-22.503-2.046
						c-5.402-4.105-16.408-12.184-15.2-15.557c0.484-1.314,3.88,0.967,6.061,2.583c-3.068-2.492-5.334-5.45-5.978-6.977
						C328.558,265.206,328.532,265.143,328.507,265.08z"/>
				</g>
				<g>
					<g>
						<g>
							<path style="fill:#CE7A63;" d="M350.824,277.934c-0.065,0.054-0.14,0.107-0.204,0.161c0.075-0.054,0.14-0.097,0.215-0.15
								c2.224-1.526,5.49-3.524,5.92-2.246c0.011,0.032,0.022,0.054,0.022,0.086c0.097,0.376,0.054,0.816-0.129,1.289
								c-1.053,2.922-6.78,7.381-11.593,10.862c-1.461,1.074-2.837,2.041-3.975,2.847c-5.523,3.911-17.245,6.803-21.407,1.093
								c0,0-7.908-6.002-0.204-14.952c3.341-3.9,6.451-9.8,8.665-12.389c1.429-1.676,2.654-3.148,3.707-4.534
								c0.011-0.011,0.021-0.032,0.032-0.043c0.451-0.591,0.838-0.752,1.117-0.591c0.161,0.064,0.29,0.247,0.387,0.494
								c0.204,0.516,0.29,1.343,0.204,2.353c-0.097,1.354-0.462,3.008-1.171,4.599c-0.451,1.021-1.042,2.009-1.783,2.879
								c0.29-0.204,0.591-0.408,0.913-0.634c0.258-0.172,0.527-0.344,0.806-0.527c2.89-1.891,6.79-4.201,10.336-5.931
								c1.526-0.752,2.998-1.397,4.287-1.859c2.342-0.827,4.126-1.074,4.717-0.269c0.419,0.559,0,1.386-0.827,2.278
								c-0.86,0.945-2.16,1.977-3.395,2.88c0.731-0.473,1.461-0.87,2.342-1.279c1.311-0.602,2.665-0.612,3.846-0.204
								c0.279,0.269,0.451,0.58,0.516,0.956c0.161,0.827-0.258,1.751-0.698,2.428c1.483-0.698,2.686-0.752,3.417-0.118
								c0.086,0.075,0.161,0.161,0.226,0.247c0.322,1.064,0.301,2.267-0.226,3.46c-0.021,0.065-0.054,0.129-0.075,0.193
								c-0.129,0.279-0.322,0.612-0.559,0.978c-0.29,0.43-0.634,0.881-0.999,1.332c-0.14,0.172-0.29,0.354-0.441,0.526
								c-0.054,0.075-0.118,0.14-0.183,0.215C353.607,275.527,352.307,276.773,350.824,277.934z"/>
						</g>
					</g>
					<g style="opacity:0.2;">
						<path d="M331.835,269.352c-0.1,0-0.153-0.043-0.21-0.103c-0.052-0.053-0.156-0.202-0.009-0.432
							c0.579-0.91,2.582-7.225,1.987-8.746c-0.07-0.178-0.147-0.199-0.173-0.207c-0.993-0.253-3.529,2.71-4.906,4.643
							c-0.087,0.122-0.254,0.15-0.375,0.062c-0.121-0.086-0.149-0.254-0.063-0.375c0.631-0.885,3.865-5.277,5.481-4.849
							c0.167,0.044,0.396,0.172,0.536,0.53c0.615,1.574-1.013,6.923-1.789,8.731c0.752-0.384,2.234-1.263,3.781-2.182
							c2.904-1.725,6.881-4.088,10.49-5.896c0.131-0.064,0.294-0.013,0.36,0.12c0.066,0.133,0.013,0.295-0.12,0.361
							c-3.59,1.798-7.559,4.156-10.456,5.877C333.037,268.865,332.172,269.352,331.835,269.352z"/>
					</g>
					<g style="opacity:0.2;">
						<path d="M357.453,275.892c0.43,1.913-4.405,6.78-12.023,12.12c-0.043,0.032-0.097,0.043-0.15,0.043
							c-0.086,0-0.172-0.043-0.226-0.118c-0.086-0.118-0.054-0.29,0.064-0.365c7.252-5.071,10.594-8.66,11.529-10.497
							c0.258-0.473,0.344-0.827,0.29-1.064c-0.022-0.064-0.054-0.15-0.161-0.225c-0.054-0.022-0.129-0.054-0.236-0.075
							c-1.966-0.311-5.297,2.246-5.34,2.267c-0.107,0.086-0.269,0.075-0.365-0.032c0,0,0-0.011-0.011-0.011
							c-0.086-0.108-0.075-0.258,0.032-0.355c0.043-0.043,4.566-4.437,5.587-6.672c0.645-1.418,0.677-2.579,0.086-3.094
							c-0.688-0.602-2.181-0.29-3.9,0.806l-0.021,0.011l-6.092,4.308c-0.043,0.032-0.097,0.043-0.15,0.043
							c-0.086,0-0.172-0.032-0.226-0.107c-0.086-0.129-0.054-0.29,0.065-0.376l6.113-4.319c0.011,0,0.011-0.011,0.021-0.011
							c0.236-0.279,1.526-1.805,1.3-2.965c-0.086-0.44-0.365-0.763-0.881-1.01c-1.268-0.612-3.889,0.731-5.952,2.063
							c-0.784,0.591-1.59,1.171-2.321,1.676c-0.118,0.075-0.279,0.054-0.365-0.064c-0.086-0.118-0.064-0.279,0.043-0.365
							c0.097-0.086,1.064-0.849,2.353-1.687c2.052-1.536,3.975-3.062,3.997-3.084c0.108-0.086,0.258-0.075,0.344,0.021
							c0.011,0,0.021,0.011,0.032,0.022c0.097,0.118,0.075,0.29-0.043,0.376c-0.011,0.011-0.473,0.387-1.182,0.935
							c1.268-0.526,2.482-0.784,3.32-0.376c0.269,0.129,0.483,0.269,0.666,0.44c0.279,0.269,0.451,0.58,0.516,0.956
							c0.161,0.827-0.258,1.751-0.698,2.428c1.483-0.698,2.686-0.752,3.417-0.118c0.086,0.075,0.161,0.161,0.226,0.247
							c0.569,0.741,0.505,1.977-0.172,3.47c-0.161,0.355-0.398,0.741-0.688,1.16c-0.29,0.43-0.634,0.881-0.999,1.332
							c-0.14,0.172-0.29,0.354-0.441,0.526c-0.054,0.075-0.118,0.14-0.183,0.215c-0.548,0.645-1.128,1.279-1.655,1.827
							c1.15-0.623,2.557-1.193,3.664-1.01C357.077,275.259,357.367,275.516,357.453,275.892z"/>
					</g>
				</g>
			</g>
		</g>
		<g>
			<g>
				<g>
					<g>
						<g>
							<path style="fill:#263238;" d="M331.211,135.539c0,0-22.523-9.332-31.376-3.77c-6.969,4.378-1.797,12.452-1.797,12.452
								s-13.428,1.053-13.026,9.546c0.342,7.212,7.599,7.276,7.599,7.276s-4.376,8.439,0.958,10.067
								c5.334,1.628,10.95-9.484,10.95-9.484L331.211,135.539z"/>
							<path style="fill:#263238;" d="M356.437,177.026c0,0,6.181,8.112,5.131,10.491c-1.573,3.563-6.405-0.179-6.405-0.179
								s4.437,5.519,0.401,8.467c-4.036,2.947-7.431-10.869-7.431-10.869L356.437,177.026z"/>
							<path style="fill:#263238;" d="M321.255,137.006c8.984-2.661,18.758-1.743,26.825,3.023
								c5.268,3.112,9.744,7.686,9.282,14.162c-1.079,15.111-6.65,40.186-6.65,40.186l-49.818-27.256c0,0-2.743-12.553,3.053-20.785
								C306.964,142.051,314.614,138.972,321.255,137.006z"/>
							<g>
								<path style="fill:#CE7A63;" d="M327.394,211.989l-0.002,0.02c0.034,0.067,0.049,0.11,0.082,0.176l2.765,8.54
									c0.285,1.758,0.404,3.518,0.362,5.236c-0.031,1.45-0.181,2.865-0.409,4.229c-1.763,2.715-2.342,8.688,4.429,8.347
									c8.546-0.417,23.541-13.759,23.898-17.558c-4.591-11.462-8.647-24.935-8.618-36.127l-9.175,11.079L327.394,211.989z"/>
							</g>
							<g style="opacity:0.2;">
								<path d="M327.474,212.185l2.765,8.54c5.213-2.732,10.52-8.299,11.489-14.059c0.671-4.156-1.389-7.895-3.057-8.014
									L327.474,212.185z"/>
							</g>
							<g>
								<path style="fill:#CE7A63;" d="M304.851,195.22c0.608,1.857,1.275,3.682,1.98,5.48c6.276,15.868,26.296,16.241,38.047,3.655
									c0.017-0.024,0.014-0.045,0.035-0.049c1.041-1.118,2.023-2.334,2.922-3.665c7.315-10.8,4.899-18.659,2.718-36.688
									c-2.177-18.008-22.126-28.242-38.021-18.09C297.862,155.231,298.732,176.659,304.851,195.22z"/>
							</g>
							<g>
								<path style="fill:#263238;" d="M324.537,171.756c-1.897,0.106-3.764-0.302-4.655-1.087c-0.401-0.353-0.44-0.963-0.087-1.364
									c0.354-0.401,0.964-0.439,1.364-0.087c0.785,0.691,4.286,1.043,6.181-0.207c0.444-0.294,1.045-0.171,1.339,0.274
									c0.294,0.446,0.171,1.045-0.274,1.339C327.353,171.319,325.936,171.678,324.537,171.756z"/>
							</g>
							<g>
								<path style="fill:#263238;" d="M306.143,174.981c1.743-0.756,3.229-1.957,3.674-3.058c0.2-0.495-0.039-1.058-0.534-1.258
									c-0.496-0.2-1.058,0.039-1.258,0.534c-0.392,0.969-3.364,2.854-5.618,2.586c-0.529-0.064-1.011,0.315-1.074,0.845
									c-0.063,0.53,0.316,1.01,0.845,1.074C303.43,175.853,304.857,175.538,306.143,174.981z"/>
							</g>
							<g>
								<path style="fill:#263238;" d="M316.879,197.637c-0.3,0.014-0.478,0.008-0.488,0.006c-0.299-0.015-0.527-0.269-0.513-0.567
									c0.016-0.297,0.267-0.521,0.568-0.513c0.293,0.016,7.426,0.268,8.11-7.846c0.024-0.297,0.292-0.526,0.583-0.494
									c0.3,0.025,0.519,0.287,0.495,0.585C324.972,196.68,318.696,197.55,316.879,197.637z"/>
							</g>
							<path style="fill:#263238;" d="M350.844,165.631c0,0-5.445,0.549-5.428,5.234c0.016,4.685,0.532,5.274,0.532,5.274
								l-6.374,1.686c0,0,0.859-17.912-3.826-17.442c-4.685,0.47-0.013-7.807-2.896-8.818c-6.802-2.383-24.957-1.601-31.385,9.692
								c0,0,1.288-10.878,9.596-17.139c8.308-6.262,25.572-8.391,33.022-0.247C351.533,152.015,350.844,165.631,350.844,165.631z"/>
							<g>
								<path style="fill:#CE7A63;" d="M360.388,174.435c-0.462,4.871-3.129,9.075-6.269,11.588
									c-4.723,3.779-9.443,0.126-10.106-5.567c-0.597-5.124,1.14-13.264,6.831-14.824
									C356.45,164.095,360.915,168.865,360.388,174.435"/>
							</g>
							<g>
								<path style="fill:#263238;" d="M325.737,177.493c0.259,1.405-0.276,2.682-1.195,2.851c-0.918,0.169-1.873-0.833-2.132-2.238
									c-0.259-1.405,0.276-2.681,1.195-2.851C324.524,175.086,325.479,176.088,325.737,177.493"/>
							</g>
							<g>
								<path style="fill:#263238;" d="M310.3,180.142c0.259,1.405-0.276,2.682-1.195,2.851c-0.918,0.169-1.873-0.833-2.132-2.238
									c-0.259-1.405,0.276-2.681,1.195-2.851C309.087,177.734,310.042,178.736,310.3,180.142"/>
							</g>
						</g>
						<g>
							<path style="fill:#BA4D3C;" d="M314.802,177.182c0,0-3.613,9.795-3.829,12.249c-0.148,1.677,5.147,1.386,5.147,1.386
								L314.802,177.182z"/>
						</g>
					</g>
				</g>
				<g>
					<g>
						<path d="M329.196,219.054c0.003-0.016,0.007-0.029,0.007-0.033c-0.004-0.004-0.012,0.009-0.023,0.034L329.196,219.054z"/>
					</g>
				</g>
			</g>
		</g>
		<path style="fill:#CE7A63;" d="M410.654,249.058c2.727,6.458,5.072,12.8,7.403,19.283c1.131,3.24,2.243,6.49,3.332,9.755
			c1.068,3.274,2.094,6.566,3.101,9.878c2.013,6.629,3.801,13.361,5.405,20.309c0.757,3.497,1.458,7.044,2.026,10.767
			c0.283,1.864,0.53,3.777,0.712,5.798c0.075,1.043,0.184,2.007,0.203,3.15l0.04,1.656c-0.001,0.584-0.027,1.221-0.047,1.828
			l-0.037,0.919l-0.029,0.51c-0.029,0.391-0.073,0.782-0.131,1.169c-0.165,0.967-0.372,1.893-0.903,3.163
			c-0.222,0.542-0.58,1.24-0.991,1.884c-0.388,0.621-0.889,1.275-1.466,1.89c-1.098,1.198-2.572,2.214-3.831,2.796
			c-2.651,1.216-4.6,1.261-5.958,1.26c-0.317-0.009-0.599-0.027-0.9-0.051l-0.437-0.042l-0.353-0.048l-0.703-0.115l-0.57-0.122
			c-0.76-0.175-1.314-0.355-1.828-0.533c-1.001-0.356-1.728-0.694-2.391-1.019c-1.301-0.649-2.279-1.248-3.213-1.84
			c-0.923-0.59-1.755-1.167-2.558-1.741c-3.177-2.29-5.92-4.548-8.6-6.876c-5.328-4.63-10.348-9.308-15.239-14.116
			c-9.789-9.589-19.146-19.394-28.158-29.68l9.105-9.693l31.943,24.4c5.328,3.976,10.628,7.971,15.929,11.626
			c2.643,1.802,5.291,3.595,7.735,5.023c0.604,0.351,1.194,0.679,1.722,0.944c0.518,0.261,1.014,0.482,1.242,0.541
			c0.102,0.027,0.152,0.017-0.05-0.072c-0.113-0.047-0.264-0.106-0.611-0.194l-0.261-0.057l-0.39-0.07l-0.476-0.057
			c-0.196-0.018-0.373-0.028-0.585-0.032c-0.939,0-2.459-0.007-4.728,1.029c-0.56,0.268-1.097,0.579-1.709,1.01
			c-0.582,0.419-1.112,0.889-1.616,1.418c-0.505,0.538-0.936,1.114-1.275,1.64c-0.356,0.554-0.655,1.164-0.846,1.604
			c-0.443,1.077-0.613,1.795-0.734,2.556c-0.048,0.282-0.082,0.568-0.101,0.854l-0.012,0.215c-0.003,0.082-0.002,0.01-0.004,0.023
			l-0.005-0.043l-0.036-0.344l-0.058-0.698l-0.117-0.865c-0.048-0.542-0.185-1.247-0.278-1.88c-0.224-1.323-0.513-2.737-0.848-4.185
			c-0.67-2.9-1.499-5.918-2.399-8.952c-1.753-6.105-3.857-12.28-5.966-18.48c-2.15-6.194-4.366-12.411-6.641-18.62l-6.781-18.573
			L410.654,249.058z"/>
		<path style="fill:#407BFF;" d="M391.561,223.442c0,0,12.626,0.21,20.684,17.401c6.798,14.502,14.747,42.236,14.747,42.236
			l-37.04,5.65c0,0-11.033-28.83-12.287-43.693C376.412,230.172,382.178,224.949,391.561,223.442z"/>
		<path style="fill:#CE7A63;" d="M330.029,290.935c-7.435,9.014-15.16,17.674-23.132,26.216c-3.986,4.276-8.047,8.488-12.259,12.657
			c-1.558,1.547-3.137,3.094-4.781,4.631c-0.57,0.537-1.15,1.064-1.741,1.601c-1.139,1.042-2.31,2.074-3.578,3.137
			c-0.634,0.527-1.3,1.074-2.041,1.633c-0.763,0.569-1.536,1.15-2.729,1.869c-0.655,0.376-1.289,0.784-2.858,1.365l-0.301,0.097
			l-0.398,0.129c-0.301,0.086-0.462,0.14-0.902,0.226c-0.72,0.15-1.612,0.333-3.213,0.279c-0.43-0.021-0.87-0.075-1.3-0.14
			c-0.172-0.021-0.526-0.086-0.827-0.161c-0.312-0.075-0.612-0.15-0.924-0.247c-1.042-0.301-2.804-1.16-4.018-2.213
			c-0.666-0.559-1.289-1.214-1.816-1.913c-0.301-0.397-0.494-0.709-0.602-0.87c-0.129-0.215-0.258-0.44-0.387-0.666
			c-0.548-1.042-0.698-1.526-0.913-2.181c-0.118-0.354-0.161-0.537-0.215-0.752l-0.14-0.655c-0.086-0.419-0.107-0.645-0.15-0.978
			c-0.043-0.344-0.054-0.484-0.075-0.741l-0.032-0.602c-0.021-0.741,0.011-1.193,0.032-1.655c0.043-0.86,0.118-1.472,0.193-2.041
			c0.29-2.192,0.645-3.739,0.999-5.361c0.698-3.148,1.461-6.049,2.246-8.95c1.579-5.78,3.309-11.378,5.082-16.954
			c3.599-11.142,7.446-22.069,11.84-32.899l9.218,3.481c-0.548,11.4-0.913,24.185-0.924,37.959
			c8.799-7.123,22.745-17.416,31.706-24.422L330.029,290.935z"/>
		<path style="fill:#407BFF;" d="M305.199,225.287c-7.489,3.61-12.71,11.013-13.409,19.619c-1.01,12.506-1.913,28.279-2.256,46.2
			l-21.821-9.541c0,0,6.529-13.679,16.836-34.784C293.01,229.456,304.727,225.341,305.199,225.287z"/>
	</g>
</g>
<g id="Character_1">
	<g>
		<g>
			<g>
				<path style="fill:#263238;" d="M134.042,368.439c0,0,0.625,15.789-2.57,24.059c1.922,3.349,68.405,14.583,97.765-10.15
					l-3.34-19.483L134.042,368.439z"/>
			</g>
			<g>
				<path style="fill:#263238;" d="M249.378,438.968l-20.14-58.558c0,0-27.245,19.981-96.184,5.895c0,0-13.414,21.417-15.999,40.964
					c-0.536,4.057-0.83,7.981-0.958,11.699H249.378z"/>
			</g>
			<g>
				<path style="fill:#263238;" d="M172.291,138.759c0,0,31.422-12.175,42.091,13.579c9.098,21.962-8.803,36.294-5.609,57.484
					c3.179,21.096,6.122,29.907-10.88,43.023c-11.451,8.834-29.662-25.965-29.662-25.965L172.291,138.759z"/>
			</g>
			<path style="fill:#263238;" d="M179.861,136.73c0,0-28.461-8.808-37.653,21.416c-7.156,23.529-1.331,36.799-16.863,43.684
				c-15.532,6.885-20.954,36.938,14.914,33.477c35.868-3.462,34.427-15.151,52.681-4.102
				C211.194,242.253,191.999,135.212,179.861,136.73z"/>
			<g>
				<g>
					<g>
						<g>
							<g>
								<path style="fill:#407BFF;" d="M220.48,322.04c-0.03,0.03-0.06,0.06-0.09,0.09c0.16,2.95,0.36,5.97,0.6,9.08
									c0.8,9.96,2.34,20.82,5.1,32.6c1.62,7.04-36.75,15.89-64.7,16.49c-15.52,0.34-27.81-1.88-28.33-8.34
									c-0.45-5.83-1.96-12.53-4.12-19.71c-1.35-4.53-2.96-9.25-4.74-14.07c-0.28-0.76-0.56-1.52-0.85-2.29
									c-0.87-2.31-1.77-4.64-2.7-6.99c-1.91-4.88-3.95-9.79-5.96-14.63c-0.76-1.82-1.5-3.6-2.22-5.38
									c-10.39-25.3-18.04-46.73-9.34-60.93c1.69-2.77,4.65-5.57,8.28-8.29c14.61-10.93,40.31-20.44,40.31-20.44l25.19,0.13
									c0,0,10.22,4.2,19.03,8.42c10.46,5.01,17.63,11.11,20.54,18.51c0.81,2.06,1.43,4.32,1.9,6.78v-0.05
									c0,0,8.94,24.9,12.92,37.49c2.7,8.54,0.02,16.46-3.72,22.57C225.28,316.86,222.56,319.94,220.48,322.04z"/>
							</g>
						</g>
					</g>
				</g>
				<path style="opacity:0.2;" d="M227.58,313.08c-2.3,3.78-5.02,6.86-7.1,8.96l-15.81-28.87L227.58,313.08z"/>
				<path style="opacity:0.2;" d="M168.85,297.07c-11.721,20.711-24.454,39.939-39.91,55.18c-1.35-4.53-2.96-9.25-4.74-14.07
					c-0.28-0.76-0.56-1.52-0.85-2.29L168.85,297.07z"/>
				<g>
					<path style="fill:#407BFF;" d="M245.65,307.19c-0.27-0.12-0.56-0.27-0.88-0.44c0.06,0.01,0.12,0.03,0.17,0.04
						c0.53,0.15,0.74,0.25,0.97,0.34c0.35,0.17,0.42,0.24,0.42,0.27C246.3,307.46,245.99,307.34,245.65,307.19z"/>
					<path style="fill:#407BFF;" d="M255.48,318.26c-0.01,0.32-0.04,0.84-0.09,1.25c-0.12,0.92-0.34,2.1-0.92,3.53
						c-0.13,0.3-0.33,0.74-0.54,1.12c-0.21,0.39-0.44,0.77-0.68,1.14c-0.57,0.83-1.21,1.58-1.97,2.27
						c-0.38,0.35-0.78,0.67-1.19,0.97c-0.42,0.3-0.8,0.53-1.22,0.77c-0.89,0.49-1.61,0.77-2.38,1.02l-0.57,0.17l-0.48,0.11
						c-0.32,0.07-0.64,0.13-0.97,0.18c-0.6,0.08-1.04,0.11-1.58,0.13c-1.83,0.01-2.82-0.24-3.66-0.44
						c-0.83-0.22-1.34-0.41-1.86-0.62c-0.93-0.38-1.55-0.72-2.1-1.03c-1.08-0.63-1.82-1.16-2.53-1.68c-0.69-0.52-1.31-1.01-1.89-1.5
						c-1.16-0.97-2.19-1.9-3.2-2.84c-2-1.85-3.81-3.75-5.61-5.62c-1.79-1.88-3.53-3.76-5.21-5.68c-3.4-3.82-13.15-17.28-16.33-21.34
						l5.22-5.06l-0.43-0.59l-4.3-5.94l-4.25-5.98c-2.79-4-5.64-8.05-8.24-12.09l25.95-18.52c3.15,4.04,5.98,8.12,8.82,12.28
						c1.39,2.09,2.8,4.17,4.17,6.28l4.04,6.38c5.28,8.59,10.36,17.32,15.02,26.59c2.35,4.68,4.57,9.33,6.67,14.9
						c0.26,0.75,0.52,1.42,0.79,2.23l0.4,1.24l0.2,0.65c0.12,0.37,0.25,0.79,0.38,1.29c0.14,0.54,0.27,1.08,0.39,1.95
						c0.06,0.36,0.12,0.95,0.14,1.47C255.48,317.58,255.49,317.92,255.48,318.26z"/>
					<path style="opacity:0.2;" d="M213.167,277.197L241,302C241,302,229.498,285.663,213.167,277.197z"/>
				</g>
			</g>
			<g>
				<g>
					<g>
						<path style="fill:#FF8B7B;" d="M167.827,235.264c0.381,0.103,0.759,0.19,1.133,0.262c6.132,1.174,10.915-4.867,8.927-10.785
							c-0.815-2.426-0.675-4.994,0.025-7.584c0.628-2.443,1.777-4.915,3.071-7.298l-2.827-4.05l-15.053-18.509
							c-0.69,11.303-3.852,27.433-13.255,32.681c0,0,1.98,6.866,13.288,13.467C164.648,234.19,166.206,234.825,167.827,235.264z"/>
					</g>
				</g>
				<g style="opacity:0.2;">
					<g>
						<path d="M177.911,217.157c0.628-2.443,1.777-4.915,3.071-7.298l-2.827-4.05l-9.302-2.095
							C168.853,203.713,171.442,213.627,177.911,217.157z"/>
					</g>
				</g>
				<g>
					<g>
						<path style="fill:#FF8B7B;" d="M160.06,167.233c-1.161,18.571-1.29,23.351,6.675,33.937
							c11.981,15.923,33.859,16.263,40.439-1.606c5.922-16.085,6.826-43.752-9.966-53.266
							C180.664,136.923,161.221,148.662,160.06,167.233"/>
					</g>
				</g>
				<path style="fill:#263238;" d="M195.948,144.869c0,0,4.804,15.252-14.411,16.813c-19.215,1.561-13.45,14.786-20.656,13.218
					c-7.206-1.569-6.045-18.178,5.044-26.668C173.611,142.347,182.738,137.783,195.948,144.869z"/>
				<g>
					<path style="fill:#263238;" d="M196.399,195.26c-1.418,0-2.736-0.405-3.902-1.211c-2.514-1.736-3.63-4.841-3.63-5.727
						c0-0.266,0.215-0.48,0.48-0.48s0.48,0.215,0.48,0.48c0,0.632,1.002,3.409,3.215,4.937c1.752,1.209,3.83,1.372,6.178,0.484
						c0.247-0.093,0.525,0.031,0.619,0.279c0.094,0.248-0.031,0.525-0.28,0.619C198.469,195.055,197.408,195.26,196.399,195.26z"/>
				</g>
				<g>
					<g>
						<path style="fill:#263238;" d="M187.21,174.459c-0.185,1.501,0.461,2.816,1.441,2.937c0.981,0.121,1.926-0.998,2.111-2.499
							c0.185-1.501-0.459-2.816-1.442-2.937C188.34,171.84,187.395,172.959,187.21,174.459"/>
					</g>
				</g>
				<g>
					<g>
						<path style="fill:#263238;" d="M202.813,176.782c-0.185,1.501,0.461,2.816,1.442,2.937c0.981,0.121,1.926-0.998,2.111-2.499
							c0.185-1.501-0.459-2.815-1.442-2.937C203.943,174.162,202.998,175.281,202.813,176.782"/>
					</g>
				</g>
				<g>
					<g>
						<path style="fill:#263238;" d="M204.481,174.313l3.732-0.595C208.214,173.718,206.017,176.306,204.481,174.313"/>
					</g>
				</g>
				<g>
					<g>
						<path style="fill:#FF5652;" d="M200.384,176.986c0,0,2.097,4.296,4.479,8.094c0.774,1.235,0.24,2.885-1.142,3.361
							c-2.372,0.818-4.86,1.013-4.86,1.013L200.384,176.986z"/>
					</g>
				</g>
				<g>
					<g>
						<path style="fill:#263238;" d="M182.87,166.218c0.19-0.137,0.436-0.199,0.683-0.153c3.894,0.732,6.181-1.6,6.208-1.626
							c0.337-0.347,0.901-0.367,1.256-0.027c0.355,0.34,0.366,0.9,0.027,1.256c-0.119,0.123-2.988,3.054-7.82,2.144
							c-0.48-0.092-0.797-0.555-0.708-1.037C182.561,166.541,182.692,166.348,182.87,166.218"/>
					</g>
				</g>
				<g>
					<g>
						<path style="fill:#263238;" d="M211.788,169.364c0.134,0.175,0.205,0.398,0.179,0.637c-0.053,0.487-0.492,0.839-0.979,0.788
							c-4.883-0.531-6.782-4.165-6.861-4.32c-0.222-0.439-0.048-0.973,0.391-1.194c0.436-0.221,0.97-0.048,1.193,0.387
							c0.073,0.144,1.586,2.94,5.469,3.361C211.43,169.05,211.646,169.178,211.788,169.364"/>
					</g>
				</g>
				<g>
					<g>
						<path style="fill:#263238;" d="M188.878,171.99l3.732-0.595C192.61,171.395,190.414,173.984,188.878,171.99"/>
					</g>
				</g>
			</g>
			<g>
				<g>
					<path style="fill:#FF8B7B;" d="M150.261,175.877c1.214,3.732,3.829,6.303,6.46,7.4c3.956,1.649,6.545-2.593,5.957-7.296
						c-0.53-4.232-3.227-10.191-7.444-9.805C151.079,166.556,148.873,171.611,150.261,175.877"/>
				</g>
			</g>
		</g>
		<g>
			<g>
				<path style="fill:#FF8B7B;" d="M172.979,265.232c-1.74-4.349,3.008-8.552,7.207-6.476c1.387,0.686,2.391,1.355,3.616,2.36
					c-2.492-1.895-6.416-4.913-5.357-6.25c1.921-2.416,14.938,5.576,20.536,9.757c-3.763-4.7-3.146-12.726-0.934-9.663
					c2.552,3.587,6.178,7.784,11.446,14.323c5.826,7.199,1.85,14.344-0.041,16.989c-0.447,0.624-0.967,1.191-1.574,1.661
					c-8.823,6.839-14.671,1.144-19.871-2.783c-5.342-4.06-16.227-12.049-15.033-15.386c0.479-1.299,3.837,0.956,5.994,2.555
					c-3.034-2.465-5.275-5.39-5.912-6.9C173.029,265.357,173.004,265.294,172.979,265.232z"/>
			</g>
			<g>
				<g>
					<g>
						<path style="fill:#FF8B7B;" d="M195.05,277.944c-0.064,0.053-0.138,0.106-0.202,0.159c0.074-0.053,0.138-0.096,0.212-0.149
							c2.2-1.509,5.43-3.485,5.855-2.221c0.011,0.032,0.021,0.053,0.021,0.085c0.096,0.372,0.053,0.808-0.128,1.275
							c-1.041,2.89-6.705,7.3-11.465,10.743c-1.445,1.063-2.805,2.019-3.932,2.816c-5.462,3.868-13.99,8.588-20.72,0.264
							c0,0-7.885-7.936-0.266-16.787c3.305-3.857,5.993-6.875,8.182-9.436c1.413-1.658,2.624-3.113,3.666-4.484
							c0.011-0.011,0.021-0.032,0.032-0.042c0.446-0.585,0.829-0.744,1.105-0.585c0.159,0.064,0.287,0.244,0.383,0.489
							c0.202,0.51,0.287,1.328,0.202,2.327c-0.096,1.339-0.457,2.975-1.158,4.548c-0.446,1.009-1.031,1.987-1.764,2.848
							c0.287-0.202,0.584-0.404,0.903-0.627c0.255-0.17,0.521-0.34,0.797-0.521c2.858-1.87,6.715-4.155,10.222-5.865
							c1.509-0.744,2.965-1.381,4.24-1.838c2.316-0.818,4.08-1.063,4.665-0.266c0.414,0.553,0,1.371-0.818,2.253
							c-0.85,0.935-2.136,1.955-3.358,2.848c0.723-0.468,1.445-0.861,2.316-1.264c1.296-0.595,2.635-0.606,3.804-0.202
							c0.276,0.266,0.446,0.574,0.51,0.946c0.159,0.818-0.255,1.732-0.691,2.401c1.466-0.691,2.656-0.744,3.379-0.117
							c0.085,0.074,0.159,0.159,0.223,0.244c0.319,1.052,0.298,2.242-0.223,3.422c-0.021,0.064-0.053,0.127-0.074,0.191
							c-0.127,0.276-0.319,0.606-0.553,0.967c-0.287,0.425-0.627,0.871-0.988,1.318c-0.138,0.17-0.287,0.351-0.436,0.521
							c-0.053,0.074-0.117,0.138-0.181,0.212C197.802,275.564,196.516,276.796,195.05,277.944z"/>
					</g>
				</g>
				<g style="opacity:0.2;">
					<path d="M176.271,269.456c-0.099,0-0.151-0.042-0.208-0.102c-0.051-0.052-0.154-0.199-0.009-0.428
						c0.572-0.9,2.553-7.145,1.965-8.65c-0.069-0.176-0.146-0.197-0.171-0.204c-0.982-0.25-3.49,2.68-4.852,4.592
						c-0.086,0.12-0.252,0.148-0.37,0.061c-0.119-0.085-0.147-0.251-0.062-0.371c0.624-0.875,3.823-5.218,5.42-4.795
						c0.165,0.044,0.392,0.17,0.53,0.524c0.609,1.556-1.002,6.846-1.77,8.634c0.743-0.38,2.209-1.249,3.739-2.158
						c2.872-1.706,6.805-4.043,10.374-5.831c0.13-0.063,0.29-0.013,0.356,0.118c0.065,0.132,0.012,0.292-0.119,0.357
						c-3.551,1.779-7.475,4.11-10.341,5.812C177.459,268.975,176.604,269.456,176.271,269.456z"/>
				</g>
				<g style="opacity:0.2;">
					<path d="M201.61,275.93c0.41,1.81-3.95,6.28-10.91,11.28l-0.45-0.33c6.58-4.7,9.67-8.04,10.56-9.79
						c0.25-0.46,0.34-0.81,0.29-1.05c-0.03-0.06-0.06-0.15-0.16-0.22c-0.06-0.02-0.13-0.05-0.24-0.08c-1.94-0.3-5.24,2.23-5.28,2.25
						c-0.1,0.08-0.26,0.07-0.36-0.04c0,0,0-0.01-0.01-0.01c-0.08-0.1-0.07-0.25,0.03-0.35c0.04-0.04,4.52-4.39,5.53-6.6
						c0.63-1.4,0.67-2.55,0.08-3.06c-0.68-0.59-2.15-0.28-3.85,0.8l-0.03,0.01l-6.02,4.26c-0.04,0.03-0.1,0.05-0.15,0.05
						c-0.08,0-0.17-0.04-0.22-0.11c-0.09-0.13-0.06-0.29,0.06-0.37l6.05-4.27c0.01,0,0.01-0.01,0.02-0.01
						c0.23-0.28,1.51-1.79,1.28-2.94c-0.08-0.43-0.36-0.75-0.87-1c-1.25-0.6-3.84,0.73-5.88,2.04c-0.78,0.59-1.58,1.16-2.3,1.66
						c-0.12,0.08-0.28,0.05-0.36-0.06c-0.09-0.12-0.06-0.28,0.04-0.36c0.1-0.09,1.05-0.84,2.33-1.67c2.03-1.52,3.93-3.03,3.95-3.05
						c0.11-0.09,0.26-0.08,0.34,0.02c0.01,0,0.02,0.01,0.03,0.02c0.1,0.12,0.08,0.29-0.04,0.37c-0.01,0.01-0.47,0.39-1.17,0.93
						c1.26-0.52,2.46-0.78,3.29-0.37c0.26,0.12,0.47,0.26,0.65,0.43c0.28,0.27,0.45,0.57,0.51,0.95c0.16,0.82-0.25,1.73-0.69,2.4
						c1.47-0.69,2.66-0.75,3.38-0.12c0.09,0.08,0.16,0.16,0.23,0.25c0.56,0.73,0.5,1.95-0.17,3.43c-0.16,0.35-0.4,0.73-0.68,1.15
						c-0.29,0.42-0.63,0.87-0.99,1.31c-0.14,0.17-0.29,0.35-0.44,0.52c-0.05,0.08-0.11,0.14-0.18,0.22
						c-0.54,0.63-1.11,1.26-1.63,1.8c1.13-0.61,2.52-1.18,3.62-1C201.23,275.3,201.52,275.55,201.61,275.93z"/>
				</g>
			</g>
		</g>
		<path style="fill:#407BFF;" d="M171.16,296.86c-9.29,11.36-19.03,22.08-29.42,32.53c-5.19,5.24-10.57,10.31-16.41,15.31
			c-2.95,2.52-6.01,4.93-9.65,7.39c-1.87,1.22-3.79,2.45-6.63,3.71c-0.74,0.32-1.54,0.63-2.49,0.94c-0.96,0.3-2.09,0.61-3.62,0.81
			c-1.5,0.17-3.54,0.34-6.47-0.39c-0.67-0.16-1.55-0.47-2.29-0.79c-0.85-0.37-1.63-0.78-2.46-1.34l-0.6-0.41l-0.29-0.22
			c-0.21-0.16-0.55-0.45-0.81-0.68c-0.55-0.49-1.09-1.07-1.52-1.6c-0.32-0.39-0.62-0.8-0.9-1.23c-1.05-1.65-1.38-2.64-1.69-3.48
			l-0.18-0.59l-0.14-0.48l-0.12-0.49l-0.09-0.37l-0.14-0.71l-0.09-0.59l-0.12-1l-0.07-0.8c-0.07-0.98-0.08-1.75-0.08-2.44
			c0.01-1.37,0.07-2.52,0.14-3.61c0.14-2.18,0.33-4.15,0.54-6.09c0.43-3.87,0.93-7.56,1.47-11.24c1.17-7.31,2.37-14.51,3.79-21.65
			c2.76-14.31,5.85-28.39,9.58-42.46l29.95,7.24c-2.98,13.88-6.32,27.82-9.59,41.63c-1.2,5.24-2.48,10.46-3.66,15.64
			c3.21-2.32,6.43-4.73,9.65-7.14c11.22-8.51,22.45-17.47,33.68-26.24L171.16,296.86z"/>
		<path style="opacity:0.2;" d="M128.02,269.352l-9.102,48.726l37.992-29.017c0,0-28.347,19.962-32.243,19.44
			C122.183,308.167,128.02,269.352,128.02,269.352z"/>
	</g>
</g>
</svg>
